<svg xmlns="http://www.w3.org/2000/svg" fill="none" viewBox="0 0 250 169">
    <path class="svg-bg" fill="#c3c8dd"
        d="M219.497 116.806c-26.151 42.614-101.358 55.744-130.14 51.408-45.09 0-78.33-29.447-74.02-51.408 6.548-33.356 25.411-31.573 80.305-44.58 54.893-13.007 59.71-62.573 94.25-56.379s62.295 47.693 29.605 100.959" />
    <path fill="currentColor" fill-rule="evenodd"
        d="M57.915 48.329c-6.93 0-12.548 5.626-12.548 12.565v12.461c9.726-4.57 16.768-13.918 18.108-25.026zm134.441 97.624h6.486c6.93 0 12.548-5.626 12.548-12.565v-32.856c-6.711 1.73-12.539 5.661-16.671 10.979a2.41 2.41 0 0 0-2.151-1.321H63.224a2.415 2.415 0 0 0-2.413 2.416 2.415 2.415 0 0 0 2.413 2.417h129.132a30.8 30.8 0 0 0-3.391 8.699H63.224a2.415 2.415 0 0 0-2.413 2.416 2.415 2.415 0 0 0 2.413 2.417h125.059a32 32 0 0 0-.059 1.933 30.8 30.8 0 0 0 4.132 15.465"
        clip-rule="evenodd" />
    <path fill="#f0f0f0"
        d="M192.568 110.19a2.413 2.413 0 0 1 2.413 2.416 2.415 2.415 0 0 1-2.413 2.417H63.224a2.415 2.415 0 0 1-2.413-2.417 2.415 2.415 0 0 1 2.413-2.416zM192.568 123.722a2.415 2.415 0 0 1 2.413 2.416 2.415 2.415 0 0 1-2.413 2.417H63.223a2.415 2.415 0 0 1-2.412-2.417 2.415 2.415 0 0 1 2.413-2.416h129.344M63.707 44.463a32 32 0 0 1-.232 3.866c-1.34 11.108-8.382 20.457-18.108 25.026a31.7 31.7 0 0 1-13.514 3.005C14.261 76.36 0 62.079 0 44.463c0-17.617 14.261-31.897 31.853-31.897s31.854 14.28 31.854 31.897" />
    <path fill="currentColor"
        d="M57.915 44.463c0-14.414-11.668-26.098-26.062-26.098-14.393 0-26.061 11.684-26.061 26.098S17.46 70.56 31.853 70.56v5.8C14.261 76.36 0 62.079 0 44.463c0-17.617 14.261-31.897 31.853-31.897s31.854 14.28 31.854 31.897a32 32 0 0 1-.232 3.866c-1.34 11.108-8.382 20.457-18.108 25.026a31.7 31.7 0 0 1-13.514 3.005v-5.8c14.394 0 26.062-11.684 26.062-26.097" />
    <path fill="currentColor"
        d="M43.178 35.021a2.41 2.41 0 0 1 3.412 0 2.42 2.42 0 0 1 0 3.417L28.733 56.32a2.41 2.41 0 0 1-3.412 0l-7.722-7.733a2.42 2.42 0 0 1 0-3.417 2.41 2.41 0 0 1 3.412 0l6.016 6.024z" />
    <path fill="#f0f0f0"
        d="M250 130.488c0 17.082-13.829 30.93-30.888 30.93-11.433 0-21.415-6.22-26.756-15.465a30.8 30.8 0 0 1-4.132-15.465q0-.974.059-1.933a30.745 30.745 0 0 1 4.073-13.532 31 31 0 0 1 2.363-3.512c4.132-5.318 9.96-9.249 16.671-10.979a31 31 0 0 1 7.722-.974c17.059 0 30.888 13.848 30.888 30.93" />
    <path fill="currentColor"
        d="M244.208 130.488c0-13.88-11.236-25.131-25.096-25.131s-25.097 11.251-25.097 25.131c0 13.879 11.237 25.131 25.097 25.131v5.799c-11.433 0-21.415-6.22-26.756-15.465a30.8 30.8 0 0 1-4.132-15.465q0-.974.059-1.933a30.745 30.745 0 0 1 4.073-13.532 31 31 0 0 1 2.363-3.512c4.132-5.318 9.96-9.249 16.671-10.979a31 31 0 0 1 7.722-.974c17.059 0 30.888 13.848 30.888 30.93s-13.829 30.93-30.888 30.93v-5.799c13.86 0 25.096-11.252 25.096-25.131" />
    <path fill="currentColor"
        d="M219.112 144.987c6.131 0 11.1-4.977 11.1-11.116h-22.2c0 6.139 4.969 11.116 11.1 11.116M213.32 122.755c0 2.136-1.296 3.867-2.895 3.867-1.6 0-2.896-1.731-2.896-3.867 0-2.135 1.296-3.866 2.896-3.866s2.895 1.731 2.895 3.866M229.73 122.755c0 2.136-1.297 3.867-2.896 3.867s-2.896-1.731-2.896-3.867c0-2.135 1.297-3.866 2.896-3.866s2.896 1.731 2.896 3.866M198.842 48.329H63.475c-1.34 11.108-8.382 20.457-18.108 25.026v60.033c0 6.939 5.618 12.565 12.548 12.565h73.9l48.228 19.165c2.535 1.007 5.285-.863 5.285-3.594v-15.571h7.028a30.8 30.8 0 0 1-4.132-15.465q0-.974.059-1.933H63.223a2.415 2.415 0 0 1-2.412-2.417 2.415 2.415 0 0 1 2.413-2.416h125.741a30.8 30.8 0 0 1 3.391-8.699H63.224a2.415 2.415 0 0 1-2.413-2.417 2.415 2.415 0 0 1 2.413-2.416h129.344c.938 0 1.752.537 2.151 1.321 4.132-5.318 9.96-9.249 16.671-10.979V60.894c0-6.94-5.618-12.565-12.548-12.565" />
    <path fill="#ffb413"
        d="M67.667 67.484a.965.965 0 0 1 1.73 0l2.031 4.12c.14.284.412.482.727.528l4.54.66a.967.967 0 0 1 .535 1.65l-3.285 3.206a.97.97 0 0 0-.278.855l.775 4.528a.966.966 0 0 1-1.4 1.02l-4.06-2.139a.96.96 0 0 0-.899 0l-4.06 2.138a.966.966 0 0 1-1.401-1.019l.775-4.528a.97.97 0 0 0-.277-.855l-3.285-3.207a.967.967 0 0 1 .535-1.648l4.54-.661a.97.97 0 0 0 .726-.529zM97.348 67.484a.965.965 0 0 1 1.731 0l2.031 4.12c.14.284.412.482.726.528l4.54.66a.967.967 0 0 1 .535 1.65l-3.285 3.206a.97.97 0 0 0-.278.855l.776 4.528a.966.966 0 0 1-1.401 1.02l-4.06-2.139a.96.96 0 0 0-.899 0l-4.06 2.138a.965.965 0 0 1-1.4-1.019l.775-4.528a.97.97 0 0 0-.278-.855l-3.285-3.207a.967.967 0 0 1 .535-1.648l4.54-.661a.97.97 0 0 0 .727-.529zM127.03 67.484a.965.965 0 0 1 1.731 0l2.03 4.12a.97.97 0 0 0 .727.528l4.54.66a.967.967 0 0 1 .535 1.65l-3.285 3.206a.97.97 0 0 0-.278.855l.775 4.528a.965.965 0 0 1-1.4 1.02l-4.061-2.139a.96.96 0 0 0-.898 0l-4.061 2.138a.965.965 0 0 1-1.4-1.019l.775-4.528a.97.97 0 0 0-.277-.855l-3.285-3.207a.967.967 0 0 1 .534-1.648l4.54-.661a.96.96 0 0 0 .727-.529zM156.711 67.484a.965.965 0 0 1 1.731 0l2.03 4.12a.97.97 0 0 0 .727.528l4.54.66a.967.967 0 0 1 .535 1.65l-3.285 3.206a.97.97 0 0 0-.278.855l.776 4.528a.966.966 0 0 1-1.401 1.02l-4.06-2.139a.97.97 0 0 0-.899 0l-4.06 2.138a.966.966 0 0 1-1.401-1.019l.776-4.528a.97.97 0 0 0-.278-.855l-3.285-3.207a.967.967 0 0 1 .535-1.648l4.54-.661a.97.97 0 0 0 .727-.529zM186.392 67.484a.965.965 0 0 1 1.732 0l2.03 4.12c.14.284.412.482.727.528l4.54.66a.967.967 0 0 1 .535 1.65l-3.286 3.206a.97.97 0 0 0-.277.855l.775 4.528a.965.965 0 0 1-1.4 1.02l-4.061-2.139a.96.96 0 0 0-.898 0l-4.061 2.138a.965.965 0 0 1-1.4-1.019l.775-4.528a.97.97 0 0 0-.277-.855l-3.286-3.207a.967.967 0 0 1 .535-1.648l4.54-.661a.96.96 0 0 0 .727-.529z" />
    <path fill="#f0f0f0"
        d="M192.568 96.658a2.415 2.415 0 0 1 2.413 2.416 2.415 2.415 0 0 1-2.413 2.417H63.224a2.415 2.415 0 0 1-2.413-2.417 2.415 2.415 0 0 1 2.413-2.416z" />
    <path fill="currentColor"
        d="M98.456 12.566C98.456 5.626 104.074 0 111.004 0h34.749c6.93 0 12.548 5.626 12.548 12.566v3.866c0 6.94-5.618 12.565-12.548 12.565h-2.896v3.03c0 .472.018.922.035 1.338.08 1.991.129 3.22-1.965 2.398l-19.078-6.766h-10.845c-6.93 0-12.548-5.625-12.548-12.565z" />
    <path fill="currentColor" fill-rule="evenodd"
        d="M148.649 18.848c0-.8-.649-1.45-1.448-1.45h-37.645c-.8 0-1.448.65-1.448 1.45 0 .801.648 1.45 1.448 1.45h37.645a1.45 1.45 0 0 0 1.448-1.45m0-7.732c0-.801-.649-1.45-1.448-1.45h-37.645c-.8 0-1.448.649-1.448 1.45s.648 1.45 1.448 1.45h37.645a1.45 1.45 0 0 0 1.448-1.45"
        clip-rule="evenodd" />
    <path fill="#f0f0f0"
        d="M147.201 17.398a1.45 1.45 0 0 1 0 2.9h-37.645c-.8 0-1.448-.649-1.448-1.45s.648-1.45 1.448-1.45zM147.201 9.666a1.45 1.45 0 0 1 0 2.9h-37.645c-.8 0-1.448-.65-1.448-1.45 0-.801.648-1.45 1.448-1.45z" />
    <path fill="currentColor"
        d="M228.246 44c.309-1.273 1.967-1.66 2.806-.654l4.81 5.764c.333.4.846.61 1.373.564l7.602-.669c1.325-.116 2.197 1.309 1.475 2.412l-4.143 6.326a1.55 1.55 0 0 0-.134 1.461l2.926 6.886c.51 1.201-.609 2.469-1.894 2.145l-7.37-1.855a1.64 1.64 0 0 0-1.456.34l-5.794 4.924c-1.01.859-2.574.217-2.645-1.086l-.413-7.472a1.55 1.55 0 0 0-.765-1.252l-6.507-3.843c-1.135-.67-.982-2.334.259-2.816l7.115-2.763c.493-.191.86-.608.983-1.113z" />
</svg>