<svg xmlns="http://www.w3.org/2000/svg" fill="none" viewBox="0 0 512 470">
    <defs>
        <style>
            .color {
                fill: #2E3E80;
            }

            @media (prefers-color-scheme: dark) {
                .color {
                    fill: #F0F0F0;
                }
            }
        </style>
    </defs>
    <path class="color" fill="currentColor"
        d="M322.318 339.433h126.963c3.987 0 7.603-2.456 9.042-6.183a212 212 0 0 0 9.33-30.959 6.42 6.42 0 0 0-6.288-7.781H336.868l12.618-39.026c1.274-3.972 5.014-6.674 9.206-6.674h103.617c5.673 0 10.111-4.792 9.659-10.444C463.008 127.512 369.584 40 256.02 40 142.457 40 49.033 127.512 40.032 238.408c-.452 5.61 3.987 10.442 9.659 10.442h242.992c4.357 0 7.481 4.259 6.124 8.395l-12.084 37.307H50.677c-4.11 0-7.193 3.807-6.288 7.78a212 212 0 0 0 9.33 30.96 9.67 9.67 0 0 0 9.042 6.183h209.453l-12.535 38.738c-1.274 3.973-5.014 6.676-9.207 6.676H88.902c-2.713 0-4.193 3.112-2.508 5.242 7.645 9.542 16.071 18.469 25.196 26.577a51.67 51.67 0 0 0 34.402 13.104h220.057a51.67 51.67 0 0 0 34.403-13.104 220.3 220.3 0 0 0 25.195-26.577c1.685-2.13.206-5.242-2.507-5.242H316.482c-4.357 0-7.481-4.259-6.126-8.396l12.003-37.018z" />
</svg>