<svg xmlns="https://www.w3.org/2000/svg" xmlns:xlink="http://www.w3.org/1999/xlink" style="display:none">

    <!-- Logo Gantz -->
    <symbol id="logo-gantz" xmlns="http://www.w3.org/2000/svg" fill="none" viewBox="0 0 140 59">
        <path fill="currentColor"
            d="M52.599 4.82v3.613h3.4v1.9h-3.38V16h-2.264V2.81h5.924V4.82zM66.93 13.28a4.4 4.4 0 0 1-.727 1.593 3.5 3.5 0 0 1-1.298 1.069c-.53.258-1.175.393-1.935.393q-1.14 0-1.922-.393a3.55 3.55 0 0 1-1.282-1.07q-.497-.676-.71-1.593a8.5 8.5 0 0 1-.214-1.958V2.81h2.243v8.311q.001.614.082 1.184.085.572.3.996.216.428.587.68.374.251.953.25c.387 0 .703-.086.953-.25.251-.168.444-.394.588-.68a3.3 3.3 0 0 0 .3-.996q.084-.567.082-1.184V2.81h2.222v8.516q.001 1.044-.225 1.958M76.328 16l-3.755-9.316h-.058l.037 9.315h-2.017V2.81h2.56l3.721 9.368h.054l-.017-9.368h1.944v13.19zM88.642 9.42q.001-1.174-.214-2.048c-.144-.582-.345-1.07-.608-1.454a2.6 2.6 0 0 0-.932-.865 2.46 2.46 0 0 0-1.18-.286h-1.063v9.278h1.064a2.5 2.5 0 0 0 1.179-.287 2.6 2.6 0 0 0 .932-.864q.393-.58.608-1.442.215-.867.214-2.023m2.239-.009q0 3.128-1.319 4.855c-.88 1.147-2.17 1.724-3.878 1.724h-3.307V2.81h3.328c1.692 0 2.982.581 3.857 1.74q1.32 1.745 1.319 4.871M96.862 4.914h-.074l-1.437 6.538h2.916l-1.4-6.538zM99.196 16l-.653-2.793h-3.476l-.674 2.793H92.15l3.291-13.19h2.86l3.232 13.19h-2.337M110.043 15.852q-.813.484-2.046.483-1.12.001-2.025-.52a4.66 4.66 0 0 1-1.532-1.442q-.627-.922-.97-2.188-.345-1.266-.345-2.777 0-1.51.345-2.786.346-1.278.982-2.2a4.6 4.6 0 0 1 1.54-1.433 4 4 0 0 1 2.009-.512c.736 0 1.426.139 2.001.417a3.6 3.6 0 0 1 1.401 1.2l-1.29 1.566q-.766-1.1-1.98-1.098-.674 0-1.175.38-.504.382-.842 1.033a5.5 5.5 0 0 0-.506 1.536q-.167.884-.168 1.893c0 .672.057 1.282.168 1.872q.167.885.506 1.536c.226.434.505.778.85 1.032q.513.381 1.204.381.654.002 1.129-.336c.317-.225.584-.495.793-.819l1.29 1.508q-.523.78-1.335 1.265M116.11 2.809h-2.243v13.19h2.243zM137.425 16l-3.755-9.316h-.057l.037 9.315h-2.017V2.81h2.559l3.718 9.368h.057l-.02-9.368h1.943v13.19zM126.319 9.63q0-.97-.16-1.823a5.7 5.7 0 0 0-.468-1.475q-.309-.621-.764-.979a1.67 1.67 0 0 0-1.056-.36c-.398 0-.768.118-1.072.36q-.456.357-.764.98-.308.62-.46 1.474-.148.854-.148 1.823 0 .97.148 1.823c.098.57.254 1.065.46 1.483.205.418.46.75.764.987q.456.361 1.072.36.616.001 1.072-.36c.304-.238.559-.57.764-.987a5.4 5.4 0 0 0 .456-1.483q.148-.854.148-1.823m2.325 0q-.001 1.512-.328 2.74-.328 1.23-.945 2.11a4.4 4.4 0 0 1-1.504 1.368q-.886.485-1.988.484c-.735 0-1.413-.16-2.001-.484a4.44 4.44 0 0 1-1.495-1.368q-.617-.88-.945-2.11-.327-1.228-.328-2.74 0-1.51.316-2.733.318-1.222.932-2.101a4.3 4.3 0 0 1 1.504-1.356q.887-.474 2.009-.475c.747 0 1.397.16 1.988.475.592.315 1.093.77 1.504 1.356q.616.879.945 2.101.327 1.223.328 2.733M9.153 55.083v-4.436h-3.36v4.436H4.568v-9.61h1.225v4.088h3.36v-4.088h1.228v9.61zM15.933 51.681q0-.553-.074-1.036a3.2 3.2 0 0 0-.238-.832 1.6 1.6 0 0 0-.407-.553.87.87 0 0 0-.57-.205.85.85 0 0 0-.572.205 1.5 1.5 0 0 0-.402.553q-.155.35-.23.832-.074.478-.074 1.036 0 .557.074 1.028.074.472.23.828.155.35.402.553a.87.87 0 0 0 .571.205.9.9 0 0 0 .588-.205 1.5 1.5 0 0 0 .402-.553q.155-.35.23-.828.075-.474.074-1.028m1.192.008q-.001.817-.169 1.48a3.7 3.7 0 0 1-.489 1.138 2.36 2.36 0 0 1-.78.741 2.1 2.1 0 0 1-1.048.267c-.39 0-.727-.086-1.035-.267a2.3 2.3 0 0 1-.785-.741 3.6 3.6 0 0 1-.489-1.139 6 6 0 0 1-.168-1.479c0-.54.057-1.04.168-1.49q.173-.677.485-1.156.314-.475.777-.742a2.1 2.1 0 0 1 1.047-.266q.585.001 1.048.266.463.264.78.742.322.472.49 1.155.17.681.168 1.491M21.553 49.558a1.5 1.5 0 0 0-.456-.426 1.23 1.23 0 0 0-.661-.168.87.87 0 0 0-.654.279q-.258.278-.258.754c0 .315.086.548.267.692.176.143.447.287.809.422q.284.109.567.266.277.155.505.402.224.245.362.577.135.333.135.795 0 .527-.156.938a1.9 1.9 0 0 1-.435.68q-.279.271-.662.414-.38.142-.83.143c-.406 0-.78-.086-1.117-.25a2.5 2.5 0 0 1-.842-.672l.682-.745q.233.284.546.496.315.209.777.209.434 0 .686-.312.251-.313.25-.815-.001-.284-.094-.488a1 1 0 0 0-.259-.348 1.7 1.7 0 0 0-.39-.245 5 5 0 0 0-.485-.197 4 4 0 0 1-.51-.23 1.708 1.708 0 0 1-.785-.905 2.2 2.2 0 0 1-.122-.778c0-.307.053-.57.156-.815q.154-.368.427-.631.271-.264.64-.406a2.2 2.2 0 0 1 .79-.143q.61 0 1.055.209.444.21.728.549l-.666.758zM24.89 51.669c0 .368.028.717.082 1.036.053.32.14.598.25.832.115.233.25.417.415.557q.246.201.571.2c.218 0 .42-.07.58-.2q.24-.203.394-.557.155-.351.23-.832.075-.479.074-1.036c0-.373-.025-.7-.074-1.025a3.3 3.3 0 0 0-.23-.831 1.55 1.55 0 0 0-.395-.557.87.87 0 0 0-.579-.205c-.226 0-.41.07-.58.205q-.253.202-.414.557c-.11.233-.189.512-.246.831q-.082.479-.083 1.025m.005-3.4v1.056h.028q.162-.559.526-.921.358-.367 1.068-.365.517 0 .924.279c.272.184.502.442.686.766.185.323.33.712.424 1.159q.142.671.143 1.458 0 .786-.135 1.455-.136.664-.415 1.138a2.2 2.2 0 0 1-.686.746q-.405.27-.94.27-.6.001-1.007-.348a1.74 1.74 0 0 1-.559-.876h-.029v4.248H23.76V48.26h1.13zM30.403 48.27h1.159v6.813h-1.159zm1.306-2.023q0 .337-.209.557a.7.7 0 0 1-.51.217.68.68 0 0 1-.517-.217.78.78 0 0 1-.205-.557.77.77 0 0 1 .205-.549.68.68 0 0 1 .518-.225q.315-.002.517.225a.78.78 0 0 1 .206.549M35.71 55.204a2.2 2.2 0 0 1-.488.053q-.789 0-1.122-.504-.333-.502-.333-1.397v-4.154h-.87v-.938h.858v-1.819h1.13v1.82h1.212v.937h-1.212v3.912q-.001.596.176.86.18.264.53.263.123.001.26-.029.136-.029.23-.065l.028.921q-.148.08-.394.136M40.136 51.73h-.506q-.313.002-.603.053c-.198.037-.37.107-.526.209q-.233.154-.374.426c-.095.18-.144.414-.144.692 0 .418.09.721.271.918s.39.29.629.29c.238 0 .431-.069.591-.208q.24-.21.387-.537c.098-.217.172-.455.21-.712q.06-.387.06-.742v-.393zm.176 3.35a8 8 0 0 1-.082-.622 7 7 0 0 1-.028-.504h-.03q-.149.608-.537.959-.39.346-1.069.348a1.8 1.8 0 0 1-.583-.107 1.4 1.4 0 0 1-.538-.352 1.9 1.9 0 0 1-.394-.623q-.156-.38-.157-.938-.002-.732.268-1.2.264-.468.665-.733.403-.263.892-.36a5 5 0 0 1 .94-.095h.448v-.299c0-.532-.103-.922-.308-1.16s-.477-.36-.822-.36q-.38 0-.706.189a1.9 1.9 0 0 0-.559.504l-.583-.721q.34-.462.883-.713c.361-.168.723-.25 1.076-.25q.586-.001.986.188c.267.127.485.312.645.557q.246.368.35.902.103.535.102 1.216v2.757q-.001.353.029.766.025.413.066.66h-.954zM44.302 44.82H43.13v10.262h1.17zM52.507 51.682a6.4 6.4 0 0 0-.082-1.037 3.2 3.2 0 0 0-.25-.831 1.7 1.7 0 0 0-.416-.557.87.87 0 0 0-.57-.205.9.9 0 0 0-.58.205 1.5 1.5 0 0 0-.394.557q-.158.351-.23.831-.074.482-.074 1.037t.074 1.028q.075.472.23.828.154.349.394.557.24.201.58.2c.225 0 .41-.065.578-.2q.255-.202.415-.557c.111-.234.19-.508.247-.828q.08-.474.082-1.028m-.004 3.4v-1.073h-.029c-.11.373-.283.68-.526.93-.242.25-.595.373-1.068.373q-.517-.001-.924-.28a2.3 2.3 0 0 1-.686-.765 4.1 4.1 0 0 1-.423-1.16 7 7 0 0 1-.144-1.474c0-.537.045-1.008.136-1.446a3.8 3.8 0 0 1 .414-1.14q.278-.48.687-.745.405-.265.94-.266.6.001 1.007.34.405.338.559.869h.028V44.82h1.159v10.262zM58.973 51.038q-.001-.89-.28-1.438c-.184-.364-.48-.545-.879-.545a.86.86 0 0 0-.591.21q-.24.209-.386.511-.15.302-.218.648-.069.344-.07.614zm-2.453.938q0 .494.09.914.087.423.26.737.17.314.427.492.259.177.6.176.463.001.735-.287c.18-.188.328-.414.435-.68l.871.504c-.18.434-.444.786-.785 1.065-.34.279-.772.414-1.298.414q-1.17 0-1.836-.959t-.666-2.667q0-.816.177-1.487.18-.669.505-1.155.327-.481.79-.745.462-.266 1.018-.267c.419 0 .772.086 1.064.267q.438.265.715.72.278.455.402 1.074.123.618.124 1.323v.557h-3.62zM62.99 44.82h-1.172v10.262h1.171zM71.252 55.081v-4.355a6 6 0 0 0-.029-.585 1.7 1.7 0 0 0-.131-.545.95.95 0 0 0-.292-.393q-.191-.15-.517-.152a1 1 0 0 0-.53.156 1.4 1.4 0 0 0-.424.434c-.119.184-.21.41-.27.668a3.5 3.5 0 0 0-.095.852v3.92h-1.159v-5.092q0-.407-.012-.877a22 22 0 0 0-.041-.848h1.1q.044.34.063.68.019.339.02.504h.029q.19-.597.633-1.003.444-.406 1.08-.406c.361 0 .661.078.891.23q.345.23.53.61.185.382.25.868c.046.328.07.656.07.992v4.342h-1.17zM74.466 48.27h1.158v6.813h-1.158zm1.306-2.023q0 .337-.21.557a.7.7 0 0 1-.509.217.68.68 0 0 1-.517-.217.78.78 0 0 1-.206-.557c0-.225.066-.402.206-.549a.68.68 0 0 1 .517-.225q.314-.002.518.225a.8.8 0 0 1 .205.549M81.91 45.746q-.044.688-.32 1.057a.87.87 0 0 1-.728.369 1.2 1.2 0 0 1-.423-.07 2.1 2.1 0 0 1-.464-.258q-.313-.204-.448-.25a.9.9 0 0 0-.3-.05q-.38.002-.464.624h-.612q.044-.66.32-1.04a.86.86 0 0 1 .727-.382q.246 0 .436.074.19.073.464.246.315.183.456.245a.8.8 0 0 0 .308.062q.218 0 .312-.148.093-.147.136-.479zm-.707 9.336v-4.355q.001-.284-.029-.585a1.9 1.9 0 0 0-.131-.545.95.95 0 0 0-.292-.394c-.127-.098-.3-.151-.517-.151a1 1 0 0 0-.53.156c-.165.102-.304.25-.423.434-.12.184-.21.41-.272.668q-.093.386-.094.852v3.92h-1.159V49.99q0-.407-.012-.877a22 22 0 0 0-.04-.848h1.1q.044.34.062.68.019.339.02.504h.029q.19-.597.633-1.003.444-.406 1.08-.406c.362 0 .662.078.891.23q.345.23.53.61a2.9 2.9 0 0 1 .251.868c.045.328.07.656.07.992v4.342H81.2zM87.804 51.681q0-.553-.074-1.036a3.2 3.2 0 0 0-.238-.832 1.6 1.6 0 0 0-.407-.553.87.87 0 0 0-.57-.205.85.85 0 0 0-.572.205 1.5 1.5 0 0 0-.402.553q-.155.35-.23.832-.075.478-.074 1.036 0 .557.074 1.028.075.472.23.828.154.35.402.553a.87.87 0 0 0 .571.205.88.88 0 0 0 .584-.205 1.5 1.5 0 0 0 .402-.553q.155-.35.23-.828.074-.474.074-1.028m1.196.008q-.001.817-.169 1.48a3.7 3.7 0 0 1-.489 1.138 2.36 2.36 0 0 1-.78.741 2.1 2.1 0 0 1-1.048.267c-.39 0-.727-.086-1.035-.267a2.4 2.4 0 0 1-.785-.741 3.6 3.6 0 0 1-.489-1.139 6 6 0 0 1-.168-1.479c0-.54.058-1.04.168-1.49q.173-.677.485-1.156.315-.475.777-.742a2.1 2.1 0 0 1 1.047-.266q.585.001 1.048.266.464.264.78.742.322.472.49 1.155.17.681.168 1.491M95.494 55.315a2.14 2.14 0 0 1-1.076-.267 2.2 2.2 0 0 1-.768-.745 3.7 3.7 0 0 1-.465-1.147 6.3 6.3 0 0 1-.156-1.48c0-.54.054-1.036.156-1.478a3.5 3.5 0 0 1 .469-1.147q.314-.481.776-.746a2.13 2.13 0 0 1 1.076-.266q.544 0 .92.184c.251.123.448.254.592.402l-.583.868a1.3 1.3 0 0 0-.382-.315 1.1 1.1 0 0 0-.53-.119.9.9 0 0 0-.571.197 1.5 1.5 0 0 0-.403.545 3.4 3.4 0 0 0-.238.823q-.08.479-.082 1.049 0 .572.074 1.04.073.468.238.811.165.34.423.533.26.19.625.188c.21 0 .386-.04.538-.123.148-.082.28-.188.386-.323l.518.897q-.56.622-1.537.623M101.591 51.681q0-.553-.074-1.036a3.2 3.2 0 0 0-.238-.832 1.6 1.6 0 0 0-.407-.553.87.87 0 0 0-.571-.205.85.85 0 0 0-.57.205 1.5 1.5 0 0 0-.403.553q-.156.35-.23.832-.075.478-.074 1.036 0 .557.073 1.028.076.472.23.828.156.35.403.553a.87.87 0 0 0 .571.205.88.88 0 0 0 .584-.205c.164-.135.295-.32.402-.553q.155-.35.23-.828.074-.474.074-1.028m1.2.008a6 6 0 0 1-.169 1.48 3.7 3.7 0 0 1-.489 1.138 2.35 2.35 0 0 1-.78.741 2.1 2.1 0 0 1-1.048.267c-.39 0-.727-.086-1.035-.267a2.4 2.4 0 0 1-.785-.741 3.6 3.6 0 0 1-.488-1.139 6 6 0 0 1-.169-1.479c0-.54.058-1.04.169-1.49a3.8 3.8 0 0 1 .484-1.156q.315-.475.777-.742a2.1 2.1 0 0 1 1.047-.266q.586.001 1.048.266c.308.177.571.422.78.742q.322.472.489 1.155.17.681.169 1.491M107.975 55.081v-4.355q0-.284-.029-.585a1.8 1.8 0 0 0-.132-.545.95.95 0 0 0-.291-.393q-.191-.15-.518-.152a1 1 0 0 0-.53.156c-.164.102-.304.25-.423.434s-.209.41-.271.668c-.066.258-.095.54-.095.852v3.92h-1.158v-5.092q0-.407-.012-.877a25 25 0 0 0-.041-.848h1.101q.043.34.061.68.02.339.021.504h.028q.19-.597.633-1.003.444-.406 1.081-.406c.361 0 .661.078.891.23q.345.23.53.61.183.382.251.868c.045.328.069.656.069.992v4.342h-1.17zM117.288 48.27h1.159v6.812h-1.159zm1.307-2.024q0 .34-.21.557a.7.7 0 0 1-.509.217.68.68 0 0 1-.518-.217.79.79 0 0 1-.205-.557c0-.226.07-.402.205-.55a.68.68 0 0 1 .518-.225q.314-.001.518.226a.8.8 0 0 1 .205.549m-2.198-.623a1.1 1.1 0 0 0-.394-.07.73.73 0 0 0-.448.131.9.9 0 0 0-.279.332q-.1.203-.144.467a3.4 3.4 0 0 0-.041.55v1.236h1.117v.938h-1.101v5.879h-1.142v-5.879h-.883v-.938h.883v-1.25q.001-.53.107-.978.109-.45.341-.774a1.6 1.6 0 0 1 .592-.508q.363-.185.862-.185c.099 0 .206.008.312.02s.21.042.3.074l-.082.95zM123.262 49.558a1.5 1.5 0 0 0-.456-.426 1.23 1.23 0 0 0-.661-.168.87.87 0 0 0-.654.279q-.258.278-.258.754 0 .474.267.692c.176.143.447.287.809.422q.284.109.567.266.277.155.505.402.224.245.362.577.135.333.135.795 0 .527-.156.938-.156.404-.435.68-.278.271-.662.414-.38.142-.83.143c-.406 0-.78-.086-1.117-.25a2.5 2.5 0 0 1-.842-.672l.682-.745q.233.284.546.496.315.209.777.209.434 0 .686-.312.251-.313.25-.815-.001-.284-.094-.488a1.1 1.1 0 0 0-.259-.348 1.7 1.7 0 0 0-.39-.245 5 5 0 0 0-.485-.197 4 4 0 0 1-.509-.23 1.6 1.6 0 0 1-.456-.36 1.6 1.6 0 0 1-.325-.545 2.2 2.2 0 0 1-.123-.778c0-.307.053-.57.156-.815q.155-.368.427-.631.272-.264.641-.406a2.2 2.2 0 0 1 .789-.143q.61 0 1.056.209.443.21.727.549l-.666.758zM126.583 48.281v4.343c0 .188.008.385.029.581q.025.3.131.545a.95.95 0 0 0 .292.393q.191.148.517.148a1 1 0 0 0 .53-.156c.165-.102.304-.25.423-.434q.18-.276.272-.664.093-.386.094-.848v-3.908h1.159v5.092q0 .405.012.873.01.466.041.84h-1.101a11.056 11.056 0 0 1-.082-1.184h-.029a2.27 2.27 0 0 1-.633 1.003q-.444.406-1.08.406-.561.002-.9-.23a1.5 1.5 0 0 1-.525-.602 2.8 2.8 0 0 1-.251-.864 7 7 0 0 1-.07-.992v-4.342zM133.91 48.432a1.25 1.25 0 0 1 1.076-.38l-.053 1.208q-.056-.014-.107-.02a.886.886 0 0 0-.703.2q-.251.21-.423.549a3 3 0 0 0-.258.766 4.4 4.4 0 0 0-.091.877v3.449h-1.171v-5.088q0-.407-.012-.877a22 22 0 0 0-.041-.847h1.101q.043.34.062.704.019.368.02.705h.029q.178-.856.571-1.25M138.824 51.73h-.506q-.314.002-.604.053a1.4 1.4 0 0 0-.526.209 1.1 1.1 0 0 0-.373.426c-.095.18-.144.414-.144.692 0 .418.09.721.271.918s.39.29.624.29q.352 0 .592-.208.24-.21.386-.537a2.8 2.8 0 0 0 .21-.712q.061-.387.061-.742v-.393zm.176 3.35a9 9 0 0 1-.082-.622c-.016-.209-.029-.377-.029-.504h-.029q-.148.608-.538.959-.389.346-1.068.348a1.8 1.8 0 0 1-.587-.107 1.4 1.4 0 0 1-.538-.352 1.9 1.9 0 0 1-.395-.623q-.154-.38-.156-.938.002-.732.267-1.2.266-.468.666-.733c.267-.176.567-.295.891-.36a5 5 0 0 1 .941-.095h.448v-.299c0-.532-.103-.922-.308-1.16a1.03 1.03 0 0 0-.822-.36q-.381 0-.707.189a1.9 1.9 0 0 0-.558.504l-.584-.721q.34-.462.884-.713c.361-.168.723-.25 1.076-.25q.585-.001.986.188c.267.127.485.312.645.557q.246.368.345.902.104.535.103 1.216v2.757q-.001.353.028.766.026.413.07.66h-.953zM28.217 29.989h12.69a.97.97 0 0 0 .904-.619q.58-1.5.932-3.097a.642.642 0 0 0-.628-.778H29.672l1.26-3.904a.97.97 0 0 1 .921-.668h10.356c.567 0 1.011-.48.966-1.044C42.279 8.789 32.942.035 21.59.035S.903 8.79.003 19.883a.97.97 0 0 0 .966 1.044h24.286c.436 0 .748.426.613.84L24.66 25.5H1.067a.642.642 0 0 0-.628.778q.352 1.598.932 3.097a.97.97 0 0 0 .904.619H23.21l-1.253 3.875a.97.97 0 0 1-.92.668H4.886a.322.322 0 0 0-.25.524 22 22 0 0 0 2.518 2.659 5.16 5.16 0 0 0 3.439 1.31h21.994c1.27 0 2.494-.466 3.439-1.31a22 22 0 0 0 2.518-2.659.322.322 0 0 0-.25-.524H27.633a.643.643 0 0 1-.612-.84l1.2-3.703zM62.175 39.105q-1.68.41-3.664.41-2.058 0-3.784-.652-1.73-.65-2.974-1.835a8.4 8.4 0 0 1-1.947-2.835q-.703-1.652-.703-3.679 0-2.051.715-3.715a8.3 8.3 0 0 1 1.972-2.835 8.8 8.8 0 0 1 2.95-1.794q1.694-.627 3.652-.627 2.033-.001 3.771.619c1.163.41 2.103.962 2.83 1.655l-2.612 2.965q-.605-.7-1.598-1.147-.991-.447-2.251-.446c-.728 0-1.393.13-2.01.397a4.8 4.8 0 0 0-1.597 1.11 5 5 0 0 0-1.052 1.688 5.9 5.9 0 0 0-.374 2.134q-.001 1.181.337 2.172c.226.66.559 1.224 1.002 1.7q.665.711 1.644 1.11c.653.266 1.396.397 2.239.397q.726-.001 1.38-.106a5.3 5.3 0 0 0 1.212-.349V32.33h-3.266v-3.326h7.066v9.045c-.843.434-1.82.786-2.942 1.06M77.598 26.57l-2.177 5.863h4.305zm4.593 12.52-1.33-3.351h-6.627l-1.257 3.35h-4.499l7.19-17.073h4.013l7.107 17.082h-4.597zM101.179 39.094 94.29 27.927h-.074l.095 11.167-4.018-.004.008-17.074h4.716l6.865 11.146h.074l-.095-11.142h4.014l-.004 17.078zM118.816 25.547l-.004 13.555-4.137-.004.004-13.555h-4.835V22.02l13.811.004v3.523zM126.506 39.102v-3.576L134.66 25.5l-7.957-.004v-3.474l13.134.005v3.305l-8.348 10.2 8.512.005v3.568zM125.02 1.909l-2.149-.004L124.095 0h2.453z" />
    </symbol>

    <!-- Plataformas -->
    <!-- Instagram -->
    <symbol id="instagram" xmlns="http://www.w3.org/2000/svg" fill="none" viewBox="0 0 24 24">
        <path fill="currentColor"
            d="M12.003 5.845a6.14 6.14 0 0 0-6.152 6.152 6.14 6.14 0 0 0 6.152 6.152 6.14 6.14 0 0 0 6.152-6.152 6.14 6.14 0 0 0-6.152-6.152m0 10.152c-2.2 0-4-1.794-4-4s1.794-4 4-4 4 1.794 4 4-1.8 4-4 4M19.84 5.594c0 .798-.642 1.435-1.435 1.435a1.435 1.435 0 1 1 1.435-1.435m4.075 1.456c-.091-1.922-.53-3.625-1.939-5.027C20.575.62 18.873.18 16.95.084c-1.981-.112-7.919-.112-9.9 0-1.917.091-3.62.53-5.027 1.933C.614 3.42.18 5.123.084 7.045c-.112 1.98-.112 7.919 0 9.9.091 1.922.53 3.624 1.939 5.027 1.408 1.403 3.105 1.842 5.027 1.938 1.981.113 7.919.113 9.9 0 1.922-.09 3.625-.53 5.028-1.938 1.402-1.403 1.841-3.105 1.938-5.027.112-1.982.112-7.914 0-9.895m-2.56 12.02a4.05 4.05 0 0 1-2.28 2.281c-1.58.627-5.328.482-7.073.482s-5.499.14-7.073-.482a4.05 4.05 0 0 1-2.281-2.28c-.626-1.58-.482-5.328-.482-7.074s-.14-5.498.482-7.073a4.05 4.05 0 0 1 2.28-2.28c1.58-.627 5.328-.482 7.074-.482s5.498-.14 7.073.482a4.05 4.05 0 0 1 2.28 2.28c.627 1.58.482 5.328.482 7.073s.145 5.499-.482 7.073" />
    </symbol>
    <!-- Youtube -->
    <symbol id="youtube" xmlns="http://www.w3.org/2000/svg" fill="none" viewBox="0 0 24 17">
        <path fill="currentColor"
            d="M23.499 2.64A3.02 3.02 0 0 0 21.377.505C19.505 0 12 0 12 0S4.495 0 2.623.505A3.02 3.02 0 0 0 .502 2.64C0 4.524 0 8.455 0 8.455s0 3.93.502 5.814a2.97 2.97 0 0 0 2.121 2.101c1.872.505 9.377.505 9.377.505s7.505 0 9.377-.505a2.97 2.97 0 0 0 2.122-2.101C24 12.385 24 8.455 24 8.455s0-3.93-.502-5.815M9.545 12.023V4.886l6.273 3.569z" />
    </symbol>
    <!-- LinkedIn -->
    <symbol id="linkedin" xmlns="http://www.w3.org/2000/svg" fill="none" viewBox="0 0 24 24">
        <path fill="currentColor"
            d="M5.372 24H.396V7.976h4.976zM2.882 5.79C1.29 5.79 0 4.474 0 2.883a2.882 2.882 0 0 1 5.763 0c0 1.59-1.29 2.909-2.881 2.909M23.995 24H19.03v-7.8c0-1.86-.038-4.243-2.587-4.243-2.587 0-2.984 2.02-2.984 4.108V24H8.49V7.976h4.772v2.186h.07c.664-1.259 2.287-2.588 4.708-2.588 5.035 0 5.961 3.316 5.961 7.624V24z" />
    </symbol>
    <!-- Facebook -->
    <symbol id="facebook" xmlns="http://www.w3.org/2000/svg" fill="none" viewBox="0 0 24 24">
        <path fill="currentColor"
            d="M21.429 0H2.57A2.57 2.57 0 0 0 0 2.571V21.43A2.57 2.57 0 0 0 2.571 24h7.353v-8.16H6.55V12h3.375V9.073c0-3.33 1.982-5.169 5.018-5.169 1.454 0 2.974.26 2.974.26V7.43h-1.675c-1.65 0-2.165 1.025-2.165 2.075V12h3.685l-.59 3.84h-3.095V24h7.353A2.57 2.57 0 0 0 24 21.429V2.57A2.57 2.57 0 0 0 21.429 0" />
    </symbol>
    <!-- Tiktok -->
    <symbol id="tiktok" xmlns="http://www.w3.org/2000/svg" fill="none" viewBox="0 0 21 24">
        <path fill="currentColor"
            d="M10.714.02C11.996 0 13.268.01 14.54 0c.078 1.497.616 3.023 1.712 4.08 1.096 1.086 2.641 1.585 4.148 1.751v3.943c-1.409-.049-2.827-.342-4.11-.95-.557-.253-1.075-.576-1.584-.909-.01 2.857.01 5.714-.02 8.56-.078 1.37-.528 2.73-1.32 3.856-1.282 1.878-3.503 3.101-5.783 3.14-1.399.078-2.798-.303-3.991-1.008C1.615 21.3.226 19.167.02 16.877c-.02-.49-.029-.978-.01-1.458a7.34 7.34 0 0 1 2.525-4.853c1.624-1.408 3.894-2.083 6.017-1.682.02 1.448-.04 2.896-.04 4.344-.968-.313-2.103-.225-2.954.362a3.4 3.4 0 0 0-1.33 1.712c-.206.499-.147 1.047-.138 1.575.235 1.605 1.781 2.955 3.425 2.808 1.096-.01 2.142-.646 2.71-1.575.186-.323.391-.656.401-1.037.098-1.752.059-3.493.069-5.244.01-3.943-.01-7.876.02-11.81" />
    </symbol>
    <!-- WhatsApp -->
    <symbol id="wsp" xmlns="http://www.w3.org/2000/svg" fill="none" viewBox="0 0 24 24">
        <path fill="currentColor"
            d="M20.405 3.488A11.8 11.8 0 0 0 11.995 0C5.438 0 .102 5.336.102 11.893c0 2.095.546 4.14 1.586 5.946L0 24l6.305-1.655a11.86 11.86 0 0 0 5.684 1.446h.006C18.546 23.791 24 18.455 24 11.898c0-3.177-1.35-6.16-3.595-8.41m-8.41 18.3a9.87 9.87 0 0 1-5.036-1.377l-.359-.215-3.74.98.997-3.647-.236-.375a9.85 9.85 0 0 1-1.51-5.261c0-5.448 4.435-9.884 9.889-9.884a9.8 9.8 0 0 1 6.986 2.898c1.864 1.87 3.01 4.35 3.005 6.991 0 5.454-4.548 9.89-9.996 9.89m5.421-7.404c-.295-.15-1.757-.868-2.03-.964-.273-.102-.472-.15-.67.15s-.766.964-.943 1.168c-.171.198-.348.225-.643.075-1.746-.874-2.892-1.56-4.044-3.536-.306-.525.305-.488.873-1.623.096-.199.048-.37-.027-.52s-.67-1.613-.916-2.207c-.241-.579-.487-.498-.67-.51-.171-.01-.37-.01-.567-.01a1.1 1.1 0 0 0-.793.37c-.273.3-1.04 1.018-1.04 2.48 0 1.463 1.067 2.877 1.211 3.075.15.198 2.095 3.198 5.079 4.49 1.885.814 2.625.883 3.568.744.573-.086 1.757-.718 2.003-1.414.247-.697.247-1.291.172-1.415-.07-.133-.268-.208-.563-.353" />
    </symbol>

    <!-- Informativo -->
    <!-- Telefono -->
    <symbol id="tel" xmlns="http://www.w3.org/2000/svg" fill="none" viewBox="0 0 24 24">
        <path fill="currentColor"
            d="M22.6 24q-4.167 0-8.233-1.817-4.067-1.815-7.4-5.15-3.335-3.333-5.15-7.4Q0 5.568 0 1.4q0-.6.4-1t1-.4h5.4q.467 0 .833.317.368.315.434.75l.866 4.666q.068.534-.033.9a1.4 1.4 0 0 1-.367.634L5.3 10.533q.666 1.234 1.583 2.384A23.5 23.5 0 0 0 8.9 15.133a23 23 0 0 0 2.167 1.917 21 21 0 0 0 2.4 1.617l3.133-3.134q.3-.3.783-.45.485-.15.95-.083l4.6.933q.467.134.767.484t.3.783v5.4q0 .6-.4 1t-1 .4M4.033 8l2.2-2.2-.566-3.133H2.7q.167 1.365.467 2.7.3 1.333.866 2.633m11.934 11.933q1.3.567 2.65.9t2.716.434v-2.934L18.2 17.7z" />
    </symbol>
    <!-- Mail -->
    <symbol id="mail" xmlns="http://www.w3.org/2000/svg" fill="none" viewBox="0 0 24 19">
        <path fill="currentColor"
            d="M2.4 19q-.99 0-1.695-.698A2.28 2.28 0 0 1 0 16.625V2.375q0-.98.705-1.677A2.32 2.32 0 0 1 2.4 0h19.2q.99 0 1.695.698T24 2.375v14.25q0 .98-.705 1.677A2.32 2.32 0 0 1 21.6 19zm9.6-8.312L2.4 4.75v11.875h19.2V4.75zm0-2.376 9.6-5.937H2.4zM2.4 4.75V2.375v14.25z" />
    </symbol>

    <!-- Corazon Boton -->
    <symbol id="heart" xmlns="http://www.w3.org/2000/svg" fill="none" viewBox="0 0 24 22">
        <path fill="currentColor"
            d="M21.67 1.504c-2.568-2.293-6.389-1.88-8.746.668L12 3.17l-.923-.997C8.724-.376 4.899-.789 2.33 1.504-.613 4.136-.768 8.86 1.866 11.714l9.07 9.81a1.424 1.424 0 0 0 2.124 0l9.07-9.81c2.639-2.854 2.484-7.578-.46-10.21" />
    </symbol>
    <!-- Contact -->
    <symbol id="contact" xmlns="http://www.w3.org/2000/svg" fill="none" viewBox="0 0 20 24">
        <path fill="currentColor"
            d="M1.235 24q-.444 0-.84-.4T0 22.748v-3.183q0-2.677 1.654-4.757t4.269-2.648a5.8 5.8 0 0 0-1.836 2.13 6 6 0 0 0-.651 2.738v5.727q0 .332.097.65.096.32.307.595zm4.379 0a1.2 1.2 0 0 1-.874-.365 1.2 1.2 0 0 1-.364-.876v-5.722q0-2.098 1.463-3.568T9.384 12h5.62q2.082 0 3.539 1.468T20 17.032v1.918q0 2.097-1.456 3.573Q17.088 24 15.007 24zM9.987 9.472q-1.956 0-3.317-1.388T5.308 4.736t1.375-3.348Q8.058 0 10.013 0t3.317 1.388q1.362 1.387 1.363 3.348t-1.376 3.348q-1.376 1.389-3.33 1.388" />
    </symbol>
    <!-- Menu Hamburgersa -->
    <symbol id="menu" xmlns="http://www.w3.org/2000/svg" fill="none" viewBox="0 0 24 24">
        <path fill="currentColor" d="M3 18v-2h18v2zm0-5v-2h18v2zm0-5V6h18v2z" />
    </symbol>
    <!-- Buscar -->
    <symbol id="search" xmlns="http://www.w3.org/2000/svg" fill="none" viewBox="0 0 18 18">
        <path fill="currentColor"
            d="m16.6 18-6.3-6.3q-.75.6-1.725.95T6.5 13q-2.725 0-4.612-1.887T0 6.5t1.888-4.612T6.5 0t4.613 1.888T13 6.5a6.1 6.1 0 0 1-1.3 3.8l6.3 6.3zM6.5 11q1.875 0 3.188-1.312Q11 8.375 11 6.5T9.688 3.313 6.5 2 3.313 3.313 2 6.5t1.313 3.188T6.5 11" />
    </symbol>
    <!-- Cerrar -->
    <symbol id="close" xmlns="http://www.w3.org/2000/svg" fill="none" viewBox="0 0 24 24">
        <path fill="currentColor"
            d="M19 6.4 13.4 12l5.6 5.6-1.4 1.4-5.6-5.6L6.4 19 5 17.6l5.6-5.6L5 6.4 6.4 5l5.6 5.6L17.6 5z" />
    </symbol>
    <!-- Link externo -->
    <symbol id="external-link" xmlns="http://www.w3.org/2000/svg" fill="none" viewBox="0 0 12 12">
        <path fill="currentColor"
            d="M1 2h7.586L.293 10.293a1 1 0 1 0 1.414 1.414L10 3.414V11a1 1 0 1 0 2 0V1a1 1 0 0 0-1-1H1a1 1 0 1 0 0 2" />
    </symbol>

    <!-- Navegacion -->
    <!-- Right arrow -->
    <symbol id="right" xmlns="http://www.w3.org/2000/svg" fill="none" viewBox="0 0 11 20">
        <path fill="currentColor"
            d="m1.773 20 7.922-7.933a2.923 2.923 0 0 0 0-4.124L1.763 0 0 1.768 7.932 9.71a.417.417 0 0 1 0 .59L.008 18.232z" />
    </symbol>
    <!-- Left -->
    <symbol id="left" xmlns="http://www.w3.org/2000/svg" fill="none" viewBox="0 0 11 20">
        <path fill="currentColor"
            d="M8.774 0 .85 7.933a2.923 2.923 0 0 0 0 4.124L8.783 20l1.763-1.767-7.932-7.943a.417.417 0 0 1 0-.59l7.924-7.932z" />
    </symbol>

    <!-- Underline -->
    <symbol id="underline" xmlns="http://www.w3.org/2000/svg" fill="none" viewBox="0 0 158 7">
        <path stroke="currentColor" stroke-linecap="round" stroke-width="4"
            d="M156 3.227c-3.355-1.043-7.403.62-10.293 1.083-3.418.547-6.381-.78-8.798-1.26-4.183-.834-6.696.228-10.051.81-4.654.809-6.988-1.201-10.447-1.716-3.995-.595-6.625.95-9.193 1.526-3.364.753-5.985-.311-8.644-.817-3.999-.76-7.758.073-10.579.918-1.094.329-3.007 1.07-4.97.824-1.939-.243-2.848-1.186-3.827-1.66-2.684-1.299-5.334-1.123-8.93-.215-3.256.822-5.385 1.26-8.973.393-4.206-1.016-6.279-.577-10.689.202-3.669.65-5.854.673-9.127-.126-3.123-.763-4.532-.473-7.61.202-1.695.372-3.598.899-5.96.684-2.302-.209-3.805-.904-6.027-1.178-4.866-.599-8.887.828-11.854 1.698-2.702.792-3.8.309-5.477-.469C4.241 3.982 2.49 3.032 2 3.455" />
    </symbol>

</svg>