<svg xmlns="http://www.w3.org/2000/svg" fill="none" viewBox="0 0 24 24">
    <path fill="white"
        d="M12.003 5.845a6.14 6.14 0 0 0-6.152 6.152 6.14 6.14 0 0 0 6.152 6.152 6.14 6.14 0 0 0 6.152-6.152 6.14 6.14 0 0 0-6.152-6.152m0 10.152c-2.2 0-4-1.794-4-4s1.794-4 4-4 4 1.794 4 4-1.8 4-4 4M19.84 5.594c0 .798-.642 1.435-1.435 1.435a1.435 1.435 0 1 1 1.435-1.435m4.075 1.456c-.091-1.922-.53-3.625-1.939-5.027C20.575.62 18.873.18 16.95.084c-1.981-.112-7.919-.112-9.9 0-1.917.091-3.62.53-5.027 1.933C.614 3.42.18 5.123.084 7.045c-.112 1.98-.112 7.919 0 9.9.091 1.922.53 3.624 1.939 5.027 1.408 1.403 3.105 1.842 5.027 1.938 1.981.113 7.919.113 9.9 0 1.922-.09 3.625-.53 5.028-1.938 1.402-1.403 1.841-3.105 1.938-5.027.112-1.982.112-7.914 0-9.895m-2.56 12.02a4.05 4.05 0 0 1-2.28 2.281c-1.58.627-5.328.482-7.073.482s-5.499.14-7.073-.482a4.05 4.05 0 0 1-2.281-2.28c-.626-1.58-.482-5.328-.482-7.074s-.14-5.498.482-7.073a4.05 4.05 0 0 1 2.28-2.28c1.58-.627 5.328-.482 7.074-.482s5.498-.14 7.073.482a4.05 4.05 0 0 1 2.28 2.28c.627 1.58.482 5.328.482 7.073s.145 5.499-.482 7.073" />
</svg>