<svg xmlns="http://www.w3.org/2000/svg" fill="none" viewBox="0 0 93 39">
    <path fill="currentColor"
        d="M34.941 3.203v2.4h2.26v1.263h-2.246v3.763H33.45V1.867h3.935v1.336zM44.461 8.822a2.95 2.95 0 0 1-.483 1.059q-.335.453-.862.71-.528.26-1.286.261-.756 0-1.277-.26a2.35 2.35 0 0 1-.851-.711 2.9 2.9 0 0 1-.472-1.059 5.6 5.6 0 0 1-.142-1.3V1.867h1.49v5.521q0 .408.054.787.057.38.2.661.143.284.39.452.249.166.633.166.385-.001.633-.166.249-.167.39-.452.143-.285.2-.661.056-.377.054-.787V1.867h1.477v5.657q0 .694-.15 1.301M50.703 10.63 48.21 4.44h-.038l.024 6.188h-1.34V1.867h1.7l2.473 6.223h.035l-.01-6.223h1.29v8.762zM58.882 6.259q.001-.78-.142-1.36-.142-.581-.404-.967a1.74 1.74 0 0 0-.619-.574q-.36-.191-.783-.19h-.707V9.33h.707q.422.001.783-.19a1.7 1.7 0 0 0 .62-.574q.26-.385.403-.958.143-.577.142-1.345m1.488-.005q0 2.078-.876 3.225-.875 1.144-2.577 1.145h-2.196V1.867h2.21q1.688 0 2.563 1.156.876 1.158.876 3.236M64.343 3.266h-.05l-.954 4.343h1.937l-.93-4.343zm1.55 7.363-.434-1.856H63.15l-.447 1.856h-1.49l2.186-8.762h1.9l2.147 8.762h-1.553M73.1 10.531q-.54.322-1.36.321-.744 0-1.345-.345a3.1 3.1 0 0 1-1.018-.958 4.8 4.8 0 0 1-.644-1.453 7 7 0 0 1-.23-1.845q0-1.004.23-1.85a4.7 4.7 0 0 1 .652-1.462 3.1 3.1 0 0 1 1.024-.953q.601-.339 1.334-.34c.489 0 .947.093 1.33.278q.569.279.93.797l-.857 1.04q-.509-.73-1.316-.73-.447 0-.78.253-.335.255-.56.686-.225.434-.335 1.02-.111.589-.112 1.258c0 .446.038.852.112 1.243q.111.588.336 1.02c.15.29.335.518.564.687q.34.253.8.253.435 0 .75-.223a2 2 0 0 0 .527-.545l.857 1.002a2.75 2.75 0 0 1-.887.84M77.13 1.867h-1.49v8.762h1.49zM91.29 10.63 88.794 4.44h-.038l.024 6.188h-1.34V1.867h1.7l2.47 6.223h.038l-.013-6.223h1.29v8.762zM83.912 6.398q0-.645-.107-1.211a3.8 3.8 0 0 0-.31-.98 1.86 1.86 0 0 0-.508-.65 1.1 1.1 0 0 0-.702-.24c-.264 0-.51.08-.712.24a1.86 1.86 0 0 0-.507.65 3.7 3.7 0 0 0-.306.98 7 7 0 0 0-.098 1.21q0 .644.098 1.212.1.568.306.985.204.417.507.656t.712.239.713-.24q.302-.238.507-.655t.303-.985a7 7 0 0 0 .098-1.211m1.545 0q-.001 1.005-.218 1.82a4.4 4.4 0 0 1-.628 1.402q-.41.585-.999.909a2.7 2.7 0 0 1-1.32.32c-.489 0-.94-.106-1.33-.32a2.94 2.94 0 0 1-.993-.91 4.4 4.4 0 0 1-.627-1.4 7 7 0 0 1-.219-1.821q0-1.004.21-1.815.212-.813.62-1.396a2.86 2.86 0 0 1 .999-.901q.588-.315 1.334-.316c.497 0 .928.106 1.32.316q.59.316 1 .9t.627 1.397a7 7 0 0 1 .218 1.815M6.08 36.59v-2.948H3.849v2.948h-.813v-6.384h.813v2.715h2.233v-2.715h.816v6.384zM10.584 34.331a4.6 4.6 0 0 0-.049-.688 2 2 0 0 0-.158-.553 1.1 1.1 0 0 0-.27-.367.58.58 0 0 0-.38-.136.56.56 0 0 0-.379.136q-.162.135-.267.367-.103.233-.153.553-.05.317-.05.688t.05.683q.05.314.153.55a1 1 0 0 0 .267.367q.164.136.38.137a.6.6 0 0 0 .39-.137q.162-.135.267-.367.104-.232.153-.55.05-.315.05-.683m.79.006q0 .542-.111.982a2.4 2.4 0 0 1-.325.757q-.212.316-.519.492a1.4 1.4 0 0 1-.695.177c-.26 0-.483-.057-.688-.177a1.55 1.55 0 0 1-.521-.492 2.4 2.4 0 0 1-.325-.757 4 4 0 0 1-.112-.982q0-.54.112-.99.114-.45.322-.768.21-.316.516-.493.306-.176.696-.177.388 0 .695.177.309.175.519.493.213.315.325.767.113.453.112.99M14.317 32.921a1 1 0 0 0-.303-.283.8.8 0 0 0-.44-.111c-.168 0-.319.062-.433.185q-.172.185-.172.5-.002.316.177.46.177.144.538.28.187.073.376.178.184.102.336.266.149.164.24.384.09.221.09.528 0 .35-.103.623-.105.27-.29.452-.185.18-.44.275-.252.094-.55.095-.406-.001-.743-.166a1.7 1.7 0 0 1-.559-.447l.453-.495q.155.189.363.33.21.138.516.138a.55.55 0 0 0 .456-.206q.166-.209.166-.542a.685.685 0 0 0-.235-.555 1.1 1.1 0 0 0-.259-.163 4 4 0 0 0-.322-.131 2.5 2.5 0 0 1-.338-.152 1.132 1.132 0 0 1-.521-.601 1.4 1.4 0 0 1-.082-.518c0-.204.035-.378.103-.541q.103-.245.284-.42.18-.174.426-.269.245-.094.524-.095.406 0 .701.139.295.14.483.364l-.442.504zM16.534 34.323q0 .369.054.688.055.32.167.553.113.232.275.37.164.134.38.133a.6.6 0 0 0 .384-.133 1 1 0 0 0 .262-.37q.104-.233.153-.553.05-.317.05-.688c0-.248-.017-.465-.05-.68a2.2 2.2 0 0 0-.153-.553 1 1 0 0 0-.262-.37.58.58 0 0 0-.384-.136.6.6 0 0 0-.385.136 1 1 0 0 0-.276.37q-.108.233-.163.553a4 4 0 0 0-.055.68m.003-2.259v.702h.019q.106-.37.35-.612.237-.243.709-.242.344.001.614.185.27.185.455.509.186.324.281.77.095.445.096.969 0 .522-.09.966-.09.442-.276.756-.184.316-.456.495a1.1 1.1 0 0 1-.624.18 1 1 0 0 1-.669-.231 1.16 1.16 0 0 1-.371-.583h-.02v2.822h-.769V32.06h.75zM20.196 32.064h.77v4.526h-.77zm.867-1.344q0 .224-.139.37a.46.46 0 0 1-.338.144.45.45 0 0 1-.344-.144.52.52 0 0 1-.137-.37c0-.15.047-.267.137-.365a.45.45 0 0 1 .344-.15.44.44 0 0 1 .344.15q.136.147.136.365M23.72 36.672q-.163.035-.324.035-.525 0-.745-.335-.22-.333-.22-.928v-2.76h-.58v-.622h.57v-1.208h.751v1.208h.805v.623h-.805v2.599q0 .396.118.571t.352.174a1.07 1.07 0 0 0 .325-.063l.019.613a1 1 0 0 1-.262.09M26.66 34.364h-.335q-.209.002-.4.035a.9.9 0 0 0-.35.14.74.74 0 0 0-.248.282 1 1 0 0 0-.096.46q0 .415.18.61.18.194.418.193a.57.57 0 0 0 .393-.14q.158-.139.256-.355a1.7 1.7 0 0 0 .14-.474q.04-.257.04-.493v-.26zm.118 2.226a5.5 5.5 0 0 1-.073-.748h-.02a1.2 1.2 0 0 1-.357.636q-.259.23-.71.232a1.2 1.2 0 0 1-.387-.071.95.95 0 0 1-.358-.234 1.3 1.3 0 0 1-.262-.414 1.7 1.7 0 0 1-.103-.623q-.002-.486.177-.797.176-.311.442-.487.268-.175.592-.24a3.4 3.4 0 0 1 .625-.062h.298v-.2q0-.53-.205-.77a.69.69 0 0 0-.546-.239q-.252 0-.469.126a1.2 1.2 0 0 0-.371.334l-.388-.479q.226-.306.587-.473t.715-.166q.39-.001.655.125.267.126.428.37.164.244.232.599.07.354.069.808v1.831q-.001.234.019.51c.01.181.027.328.043.437h-.633zM29.428 29.773h-.778v6.817h.778zM34.88 34.331q-.001-.367-.055-.689a2 2 0 0 0-.166-.552 1.1 1.1 0 0 0-.276-.37.58.58 0 0 0-.38-.136.6.6 0 0 0-.384.136 1 1 0 0 0-.262.37q-.105.233-.153.552-.05.32-.049.689 0 .368.05.683.049.314.152.55.102.232.262.37.16.134.385.133c.15 0 .273-.043.385-.133a1 1 0 0 0 .275-.37 2.2 2.2 0 0 0 .164-.55q.053-.315.054-.683m-.002 2.259v-.713h-.02a1.47 1.47 0 0 1-.349.617q-.239.248-.71.248-.343-.001-.613-.185a1.5 1.5 0 0 1-.456-.509 2.8 2.8 0 0 1-.281-.77 4.7 4.7 0 0 1-.096-.98c0-.356.03-.67.09-.96q.09-.437.276-.757.185-.319.456-.495a1.1 1.1 0 0 1 .625-.177q.397 0 .668.226.27.226.372.577h.019v-2.94h.77v6.818zM39.174 33.904q0-.592-.186-.955a.61.61 0 0 0-.584-.362.57.57 0 0 0-.393.139 1.1 1.1 0 0 0-.256.34 1.7 1.7 0 0 0-.145.43 2 2 0 0 0-.046.408zm-1.63.623q0 .328.06.607.058.281.172.49t.284.326a.7.7 0 0 0 .399.117q.307.001.488-.19.181-.187.29-.452l.578.335q-.181.43-.521.707t-.863.275q-.777 0-1.22-.637-.441-.636-.441-1.771 0-.543.117-.988t.335-.767a1.6 1.6 0 0 1 .524-.496q.308-.176.677-.176.417-.001.707.176a1.4 1.4 0 0 1 .475.48q.185.3.267.712.082.41.082.88v.37H37.55zM41.842 29.773h-.777v6.817h.777zM47.33 36.59v-2.893q0-.188-.018-.39a1.2 1.2 0 0 0-.087-.361.63.63 0 0 0-.194-.261.55.55 0 0 0-.344-.101.66.66 0 0 0-.352.103.95.95 0 0 0-.281.289q-.12.185-.18.443a2.3 2.3 0 0 0-.063.566v2.605h-.77v-3.383q0-.27-.008-.582a15 15 0 0 0-.027-.563h.731q.03.226.041.451.013.225.014.335h.019a1.5 1.5 0 0 1 .42-.667q.296-.27.718-.27c.24 0 .44.053.592.153q.23.154.352.406.122.253.166.577a5 5 0 0 1 .047.658v2.885h-.778zM49.467 32.064h.77v4.526h-.77zm.868-1.344q0 .224-.14.37a.46.46 0 0 1-.338.144.45.45 0 0 1-.344-.144.52.52 0 0 1-.136-.37.5.5 0 0 1 .136-.365.45.45 0 0 1 .344-.15.44.44 0 0 1 .344.15q.136.149.136.365M54.412 30.388q-.03.457-.213.702a.58.58 0 0 1-.483.245.8.8 0 0 1-.281-.046 1.4 1.4 0 0 1-.309-.172 1.6 1.6 0 0 0-.297-.166.6.6 0 0 0-.2-.032q-.252.001-.308.413h-.406q.029-.436.212-.69a.57.57 0 0 1 .483-.254q.164 0 .29.05.125.048.308.162.21.122.303.164.094.04.205.04.144 0 .207-.097a.8.8 0 0 0 .09-.319zm-.47 6.202v-2.893q.001-.189-.019-.389a1.2 1.2 0 0 0-.087-.362.63.63 0 0 0-.194-.261.55.55 0 0 0-.344-.1.66.66 0 0 0-.352.103.9.9 0 0 0-.28.288q-.12.185-.181.444-.062.256-.063.566v2.604h-.77v-3.383q0-.27-.008-.582a15 15 0 0 0-.027-.563h.732q.028.226.04.452.014.224.014.334h.02q.125-.397.42-.666.295-.27.717-.27c.24 0 .44.052.592.153q.23.153.352.405.122.254.167.577.045.325.046.658v2.885h-.777zM58.327 34.331a4.6 4.6 0 0 0-.05-.688 2 2 0 0 0-.158-.553 1.1 1.1 0 0 0-.27-.367.58.58 0 0 0-.38-.136.56.56 0 0 0-.379.136q-.162.135-.267.367-.103.233-.153.553a4.5 4.5 0 0 0-.049.688q0 .37.05.683.049.314.152.55a1 1 0 0 0 .267.367.58.58 0 0 0 .38.137.58.58 0 0 0 .387-.137q.163-.135.268-.367.103-.232.153-.55.048-.315.049-.683m.794.006q0 .542-.112.982a2.4 2.4 0 0 1-.325.757q-.213.316-.518.492a1.4 1.4 0 0 1-.696.177 1.3 1.3 0 0 1-.688-.177c-.205-.12-.38-.28-.521-.492a2.4 2.4 0 0 1-.325-.757 4 4 0 0 1-.112-.982q0-.54.112-.99.114-.45.322-.768.21-.316.516-.493.307-.176.696-.177.389 0 .696.177.308.175.518.493.213.315.325.767.113.453.112.99M63.434 36.745q-.406 0-.715-.177a1.45 1.45 0 0 1-.51-.495 2.5 2.5 0 0 1-.308-.762 4.2 4.2 0 0 1-.104-.983q0-.54.104-.982.102-.442.31-.762.21-.319.516-.495t.715-.177a1.38 1.38 0 0 1 1.005.389l-.388.577a.732.732 0 0 0-.606-.288.6.6 0 0 0-.379.13 1 1 0 0 0-.267.362 2.3 2.3 0 0 0-.159.547 4 4 0 0 0-.054.697q0 .38.049.69.048.311.158.54.11.226.281.353a.7.7 0 0 0 .415.126.74.74 0 0 0 .614-.297l.344.596q-.371.413-1.02.413M67.486 34.331q0-.366-.05-.688a2.1 2.1 0 0 0-.157-.553 1.1 1.1 0 0 0-.27-.367.58.58 0 0 0-.38-.136.56.56 0 0 0-.38.136q-.161.135-.267.367-.103.233-.152.553-.05.317-.05.688t.05.683q.049.314.152.55a1 1 0 0 0 .268.367.58.58 0 0 0 .38.137.58.58 0 0 0 .387-.137q.162-.135.267-.367.103-.232.153-.55.05-.315.049-.683m.797.006q0 .542-.112.982a2.4 2.4 0 0 1-.325.757q-.212.316-.518.492a1.4 1.4 0 0 1-.696.177 1.3 1.3 0 0 1-.688-.177c-.204-.12-.38-.28-.521-.492a2.4 2.4 0 0 1-.325-.757 4 4 0 0 1-.112-.982q0-.54.112-.99.114-.45.322-.768.21-.316.516-.493.308-.176.696-.177.39 0 .696.177c.204.117.38.28.518.493q.213.315.325.767.113.453.112.99M71.725 36.59v-2.893q.001-.188-.019-.39a1.2 1.2 0 0 0-.087-.361.63.63 0 0 0-.194-.261.55.55 0 0 0-.344-.101.66.66 0 0 0-.352.103.9.9 0 0 0-.28.289q-.12.185-.18.443a2.3 2.3 0 0 0-.064.566v2.605h-.77v-3.383q0-.27-.007-.582a15 15 0 0 0-.028-.563h.732q.028.226.04.451.014.225.014.335h.02q.125-.397.42-.667t.717-.27q.362.001.593.153.228.154.352.406.121.253.166.577.046.325.046.658v2.885h-.777zM77.913 32.064h.77v4.526h-.77zm.868-1.344a.5.5 0 0 1-.14.37.46.46 0 0 1-.338.144.45.45 0 0 1-.344-.144.52.52 0 0 1-.136-.37c0-.15.046-.267.136-.364a.45.45 0 0 1 .344-.15.44.44 0 0 1 .344.15.52.52 0 0 1 .136.364m-1.46-.413a.7.7 0 0 0-.262-.047q-.18 0-.297.087a.6.6 0 0 0-.186.22q-.066.135-.095.311a2.3 2.3 0 0 0-.028.365v.821h.743v.624h-.731v3.904h-.76v-3.904h-.586v-.624h.587v-.83q0-.351.07-.65.074-.298.227-.514.156-.218.393-.338.242-.122.573-.122.1 0 .208.014c.07.008.139.027.199.049l-.055.63zM81.881 32.921a1 1 0 0 0-.302-.283.8.8 0 0 0-.44-.111c-.17 0-.32.062-.434.185q-.172.185-.172.5 0 .316.178.46.176.144.537.28.189.073.377.178.184.102.335.266.15.164.24.384.09.221.09.528 0 .35-.103.623-.103.27-.29.452-.184.18-.439.275-.253.094-.55.095-.407-.001-.743-.166a1.7 1.7 0 0 1-.56-.447l.453-.495q.155.189.363.33.21.138.516.138a.55.55 0 0 0 .456-.206q.167-.209.166-.542a.8.8 0 0 0-.062-.324.7.7 0 0 0-.172-.231 1.1 1.1 0 0 0-.26-.163 4 4 0 0 0-.322-.131 2.5 2.5 0 0 1-.338-.152 1.1 1.1 0 0 1-.519-.602 1.4 1.4 0 0 1-.081-.517c0-.204.035-.378.103-.541q.104-.245.284-.42.18-.174.426-.269.245-.094.524-.095.406 0 .701.139.296.14.483.364l-.442.504zM84.086 32.072v2.885q0 .19.02.386.016.2.087.362.068.164.194.262t.343.098a.66.66 0 0 0 .352-.104.9.9 0 0 0 .282-.288q.118-.184.18-.441.061-.258.062-.563v-2.596h.77v3.382q0 .27.008.58t.027.558h-.731q-.03-.224-.04-.452a7 7 0 0 1-.015-.335h-.019a1.5 1.5 0 0 1-.42.667q-.295.27-.718.27-.372 0-.597-.153-.226-.15-.35-.4a1.9 1.9 0 0 1-.166-.574 5 5 0 0 1-.046-.659v-2.885zM88.954 32.173a.83.83 0 0 1 .715-.253l-.036.803q-.037-.01-.07-.014a.587.587 0 0 0-.467.133 1.1 1.1 0 0 0-.281.365q-.115.226-.172.509a3 3 0 0 0-.06.582v2.292h-.778v-3.38q0-.271-.008-.582a14 14 0 0 0-.028-.564h.732q.029.227.04.468.014.245.014.468h.02q.118-.568.379-.83M92.218 34.364h-.335q-.21.002-.401.035a.9.9 0 0 0-.35.14.74.74 0 0 0-.248.282 1 1 0 0 0-.096.46q0 .415.18.61.181.194.415.193a.58.58 0 0 0 .393-.14q.16-.139.257-.355a1.8 1.8 0 0 0 .139-.474q.04-.257.04-.493v-.26zm.118 2.226a5.5 5.5 0 0 1-.074-.748h-.02a1.2 1.2 0 0 1-.357.636q-.258.23-.71.232-.188-.001-.39-.071a.95.95 0 0 1-.357-.234 1.3 1.3 0 0 1-.262-.414 1.7 1.7 0 0 1-.103-.623q0-.486.177-.797.176-.311.442-.487c.177-.117.377-.196.592-.24q.327-.061.625-.062h.297v-.2q0-.53-.204-.77a.69.69 0 0 0-.546-.239q-.254 0-.47.126a1.2 1.2 0 0 0-.37.334l-.388-.479q.226-.306.587-.473t.715-.166q.388-.001.655.125t.428.37q.165.244.23.599.069.354.068.808v1.831q-.001.234.019.51.016.273.046.437h-.633zM18.744 19.92h8.43a.64.64 0 0 0 .6-.411q.386-.996.62-2.057a.426.426 0 0 0-.418-.517H19.71l.838-2.594a.64.64 0 0 1 .611-.443h6.88a.64.64 0 0 0 .641-.694C28.085 5.837 21.883.022 14.343.022S.6 5.837.002 13.207a.643.643 0 0 0 .64.693h16.134c.289 0 .496.284.406.558l-.802 2.48H.709a.426.426 0 0 0-.418.516q.234 1.062.62 2.058c.095.247.333.41.6.41h13.907l-.833 2.575a.64.64 0 0 1-.61.443H3.246a.214.214 0 0 0-.167.349 14.4 14.4 0 0 0 1.673 1.766c.628.56 1.441.87 2.284.87h14.61c.844 0 1.657-.31 2.285-.87a14.6 14.6 0 0 0 1.673-1.766.214.214 0 0 0-.167-.349h-7.081a.427.427 0 0 1-.407-.557l.797-2.46zM41.303 25.977q-1.117.273-2.435.272-1.367 0-2.513-.433a5.8 5.8 0 0 1-1.976-1.219 5.6 5.6 0 0 1-1.293-1.883q-.467-1.097-.467-2.443 0-1.364.475-2.469a5.5 5.5 0 0 1 1.31-1.883 5.8 5.8 0 0 1 1.96-1.192 6.9 6.9 0 0 1 2.425-.416q1.35 0 2.505.41 1.158.41 1.88 1.1l-1.735 1.97q-.401-.464-1.062-.762-.657-.297-1.495-.296c-.483 0-.925.087-1.334.264q-.614.265-1.062.737a3.4 3.4 0 0 0-.699 1.121 3.9 3.9 0 0 0-.248 1.418q0 .785.224 1.442t.666 1.13q.44.473 1.091.737.65.265 1.487.264.484 0 .917-.07.434-.074.806-.232v-2.068h-2.17v-2.21h4.694v6.009a8.9 8.9 0 0 1-1.954.705M51.547 17.65 50.1 21.544h2.86zm3.05 8.316-.884-2.226h-4.401l-.836 2.226h-2.988l4.776-11.342h2.666l4.721 11.347h-3.054zM67.212 25.969l-4.576-7.419h-.05l.063 7.419-2.669-.003.006-11.342h3.133l4.56 7.404h.049l-.063-7.401h2.666L70.33 25.97zM78.927 16.97l-.003 9.004-2.748-.003.003-9.004h-3.212v-2.34l9.174.002v2.34zM84.035 25.974v-2.376l5.417-6.658-5.286-.003v-2.308l8.725.003v2.196l-5.546 6.776 5.655.003v2.37zM83.048 1.268l-1.427-.003L82.434 0h1.63z" />
</svg>